Coordinates
version=1
nRows=12
nColumns=38
inDegrees=yes

Units are S.I. units (second, meters, Newtons, ...)
Angles are in degrees.

endheader
time	pelvis_tilt	pelvis_list	pelvis_rotation	pelvis_tx	pelvis_ty	pelvis_tz	hip_flexion_r	hip_adduction_r	hip_rotation_r	knee_angle_r	ankle_angle_r	subtalar_angle_r	mtp_angle_r	hip_flexion_l	hip_adduction_l	hip_rotation_l	knee_angle_l	ankle_angle_l	subtalar_angle_l	mtp_angle_l	lumbar_extension	lumbar_bending	lumbar_rotation	arm_flex_r	arm_add_r	arm_rot_r	elbow_flex_r	pro_sup_r	wrist_flex_r	wrist_dev_r	arm_flex_l	arm_add_l	arm_rot_l	elbow_flex_l	pro_sup_l	wrist_flex_l	wrist_dev_l
      2.08000000	      0.33984884	      3.70113119	     -1.74599042	      1.00949670	      0.97454462	     -0.28872718	     20.38915297	    -11.99667574	    -12.44675292	    -61.26306141	      4.29071068	    -16.81018757	      0.00000000	      7.72937918	      7.64811849	     -7.27881397	    -17.77511551	     10.31451011	    -12.13045370	      0.00000000	     -2.48682229	     -3.62083749	     -5.91731782	      3.66552552	     -3.89018914	     47.71913821	     20.60624363	     43.69938810	      0.00000000	      0.00000000	      5.59956958	    -10.79906648	     48.35087961	     27.60422388	     43.69938810	      0.00000000	      0.00000000
      2.09000000	      0.19447180	      3.66681580	     -1.42631907	      1.01977229	      0.97503917	     -0.28981533	     21.40659918	    -12.06022099	    -13.08455589	    -59.79513541	      4.44209448	    -16.87666466	      0.00000000	      6.96577218	      7.71329714	     -7.24183525	    -17.28242744	     10.59500183	    -11.98412997	      0.00000000	     -2.34791927	     -3.48681367	     -6.28259894	      3.12107523	     -3.92128827	     47.75947263	     20.49681491	     43.70375205	      0.00000000	      0.00000000	      6.29999997	    -10.89221546	     48.33093309	     27.78394673	     43.70375205	      0.00000000	      0.00000000
      2.10000000	      0.21052798	      3.53052492	     -1.06499909	      1.02976192	      0.97569069	     -0.29069741	     21.99062959	    -11.83786166	    -13.52875702	    -57.87097990	      4.79456664	    -16.67158824	      0.00000000	      6.06897907	      7.64408007	     -6.96525581	    -16.90118323	     10.94139744	    -11.66487800	      0.00000000	     -2.45599601	     -3.26217133	     -6.56331090	      2.54735092	     -3.95067397	     47.80580751	     20.34496151	     43.71729022	      0.00000000	      0.00000000	      7.17531141	    -11.11831619	     48.46741803	     28.29536058	     43.71729022	      0.00000000	      0.00000000
      2.11000000	      0.10092257	      3.52491757	     -0.72932556	      1.03954686	      0.97585538	     -0.29142018	     22.82685712	    -11.82388257	    -14.07435440	    -55.92333395	      5.01904142	    -16.59094838	      0.00000000	      5.41006038	      7.69135436	     -6.97790726	    -16.69469558	     11.20001473	    -11.49587169	      0.00000000	     -2.42531970	     -3.22916937	     -6.88343398	      2.06003630	     -3.93727522	     47.83558515	     20.23405559	     43.72448989	      0.00000000	      0.00000000	      7.90939718	    -11.34264965	     48.53457912	     28.69174948	     43.72448989	      0.00000000	      0.00000000
      2.12000000	      0.12233910	      3.47215417	     -0.39250589	      1.04936834	      0.97609252	     -0.29195252	     23.26053845	    -11.58142973	    -14.30696171	    -53.62412005	      5.68296205	    -16.06176029	      0.00000000	      4.57580829	      7.65615074	     -6.83563738	    -16.43674983	     11.62207577	    -11.09078641	      0.00000000	     -2.54773984	     -3.13030266	     -7.13038950	      1.51866921	     -3.90188514	     47.85489021	     20.07497749	     43.73699763	      0.00000000	      0.00000000	      8.70614457	    -11.69676182	     48.75018468	     29.47935481	     43.73699763	      0.00000000	      0.00000000
      2.13000000	      0.04501016	      3.48467412	     -0.04430057	      1.05895884	      0.97588032	     -0.29237897	     23.81269208	    -11.43307106	    -14.62191432	    -51.25503701	      6.16759348	    -15.51779909	      0.00000000	      4.07005613	      7.58882451	     -7.52726361	    -16.51949884	     12.24747206	    -10.13567377	      0.00000000	     -2.59775706	     -3.12216610	     -7.46853955	      1.14372618	     -3.76842706	     47.74057825	     19.65474553	     43.80144526	      0.00000000	      0.00000000	      9.16682669	    -12.88467855	     49.74719529	     32.36055859	     43.80144526	      0.00000000	      0.00000000
      2.14000000	     -0.05869161	      3.57604456	      0.28526722	      1.06845558	      0.97555750	     -0.29274386	     24.30664951	    -11.23803377	    -14.68902508	    -48.64533016	      6.53748875	    -15.16685220	      0.00000000	      3.48206915	      7.69233870	     -7.46324160	    -16.39759033	     12.51586478	    -10.00078894	      0.00000000	     -2.61230800	     -3.22087952	     -7.71489927	      0.68935940	     -3.69879536	     47.76062188	     19.57478835	     43.80857885	      0.00000000	      0.00000000	      9.94619571	    -13.09649780	     49.63821766	     32.62271513	     43.80857885	      0.00000000	      0.00000000
      2.15000000	     -0.04381520	      3.57444264	      0.58750188	      1.07797449	      0.97523106	     -0.29301359	     24.59582996	    -11.01113946	    -15.00555437	    -45.91091463	      6.80337082	    -14.53831771	      0.00000000	      2.74655943	      7.69331343	     -7.52756182	    -16.18431787	     12.88373713	     -9.86792676	      0.00000000	     -2.77542507	     -3.20351440	     -7.90797238	      0.24967622	     -3.64197284	     47.74670625	     19.43795446	     43.81914625	      0.00000000	      0.00000000	     10.74686673	    -13.34018633	     49.58152360	     33.18136528	     43.81914625	      0.00000000	      0.00000000
      2.16000000	     -0.08056632	      3.69411521	      0.90709728	      1.08737200	      0.97471414	     -0.29333028	     24.83200105	    -10.87817183	    -15.19957334	    -42.99714509	      7.19190131	    -13.53788377	      0.00000000	      2.06104632	      7.80806720	     -7.62366524	    -16.00742949	     13.21105655	     -9.53788191	      0.00000000	     -2.89712130	     -3.31875701	     -8.20930526	      0.00172079	     -3.46931183	     47.46237891	     19.01559796	     43.88603602	      0.00000000	      0.00000000	     11.10310620	    -14.27370398	     49.45656934	     35.89419460	     43.88603602	      0.00000000	      0.00000000
      2.17000000	     -0.25717055	      3.96377644	      1.10046102	      1.09666143	      0.97363481	     -0.29350949	     25.38674489	    -10.85900225	    -15.31766889	    -40.20097489	      6.89528602	    -13.12396578	      0.00000000	      1.63682528	      8.09360433	     -7.54793162	    -15.98219655	     13.68531189	     -9.54392872	      0.00000000	     -2.85661762	     -3.61870064	     -8.44037327	     -0.20154956	     -3.39443717	     47.46483398	     18.98596969	     43.88777071	      0.00000000	      0.00000000	     11.56825575	    -14.42344897	     49.34702042	     35.98336508	     43.88777071	      0.00000000	      0.00000000
      2.18000000	     -0.08149332	      3.69318235	      1.48995401	      1.10627147	      0.97316067	     -0.29351229	     25.04308406	    -10.27314225	    -15.98822334	    -36.76692382	      7.12412903	    -12.25157578	      0.00000000	      0.76359628	      7.72555225	     -7.46283780	    -15.94449760	     14.34544535	     -8.89050789	      0.00000000	     -3.23970941	     -3.30752451	     -8.67260865	     -0.57711905	     -3.05889875	     46.74730773	     18.33484245	     43.97609298	      0.00000000	      0.00000000	     11.83699189	    -15.35544630	     47.91340181	     39.10257334	     43.97609298	      0.00000000	      0.00000000
      2.19000000	     -0.20234399	      3.79056368	      1.85339462	      1.11557237	      0.97200441	     -0.29382319	     25.21010777	    -10.03509939	    -16.23968306	    -33.59257122	      7.00867712	    -11.61787926	      0.00000000	      0.28034376	      7.81254345	     -7.24275890	    -15.99927741	     14.70027066	     -8.80355037	      0.00000000	     -3.29948728	     -3.38114806	     -8.90230416	     -0.88122520	     -3.02367299	     46.73035438	     18.29654148	     43.98191487	      0.00000000	      0.00000000	     12.57156666	    -15.48509595	     47.63837085	     39.35553507	     43.98191487	      0.00000000	      0.00000000
